<?xml version="1.0" standalone="no"?>
<!DOCTYPE svg PUBLIC "-//W3C//DTD SVG 20010904//EN"
 "http://www.w3.org/TR/2001/REC-SVG-20010904/DTD/svg10.dtd">
<svg version="1.0" xmlns="http://www.w3.org/2000/svg"
 width="1982.000000pt" height="1982.000000pt" viewBox="0 0 1982.000000 1982.000000"
 preserveAspectRatio="xMidYMid meet">
<metadata>
Created by potrace 1.14, written by Peter Selinger 2001-2017
</metadata>
<g transform="translate(0.000000,1982.000000) scale(0.100000,-0.100000)"
fill="#000000" stroke="none">
<path d="M2630 17515 c0 -899 2 -1635 4 -1635 2 0 16 21 31 46 137 233 417
495 667 624 l68 35 0 898 0 897 6505 0 6505 0 0 -1380 c0 -1012 3 -1380 11
-1380 32 0 449 267 661 423 l97 72 1 1518 0 1517 -7275 0 -7275 0 0 -1635z"/>
<path d="M14615 17472 c-424 -27 -830 -257 -1056 -597 -93 -140 -174 -327
-194 -448 -6 -34 -12 -66 -21 -107 -3 -14 -7 -86 -9 -160 -6 -242 36 -434 140
-640 68 -135 184 -292 290 -392 47 -46 216 -168 230 -168 4 0 19 -8 33 -18 70
-48 267 -123 417 -158 60 -15 427 -13 505 2 518 97 978 565 1076 1094 13 67
11 409 -2 485 -67 381 -348 764 -704 957 -67 36 -234 100 -296 112 -10 3 -39
9 -64 15 -88 19 -243 30 -345 23z"/>
<path d="M415 17448 c-157 -43 -280 -142 -349 -283 -70 -143 -73 -273 -11
-560 15 -66 28 -129 29 -140 5 -31 114 -449 142 -545 14 -47 31 -107 39 -135
187 -664 482 -1382 802 -1950 22 -38 52 -92 68 -120 100 -177 234 -390 396
-625 116 -169 167 -256 198 -340 26 -70 58 -207 66 -285 4 -33 8 -70 10 -83
24 -154 24 -997 0 -1297 -1 -22 -6 -80 -9 -130 -7 -92 -15 -180 -21 -225 -2
-14 -7 -61 -11 -105 -3 -44 -8 -87 -9 -95 -1 -8 -6 -40 -9 -70 -13 -105 -17
-135 -21 -160 -2 -14 -9 -61 -15 -105 -6 -44 -13 -91 -15 -105 -3 -14 -11 -71
-20 -128 -8 -57 -19 -122 -24 -145 -5 -23 -12 -60 -15 -82 -3 -22 -8 -51 -11
-65 -8 -41 -15 -83 -21 -120 -3 -19 -7 -42 -9 -50 -2 -8 -7 -31 -10 -50 -3
-19 -8 -42 -10 -50 -2 -8 -7 -31 -10 -50 -7 -43 -24 -131 -35 -185 -5 -22 -14
-62 -19 -90 -9 -45 -53 -254 -67 -316 -3 -13 -7 -35 -10 -49 -32 -163 -176
-694 -304 -1120 -34 -113 -86 -288 -115 -390 -30 -102 -77 -252 -105 -335 -97
-287 -119 -408 -99 -540 33 -205 176 -412 423 -610 88 -70 237 -172 320 -219
23 -13 70 -40 106 -61 93 -54 450 -230 529 -261 36 -14 72 -32 79 -38 12 -12
34 -81 46 -146 2 -14 16 -74 31 -135 14 -60 28 -126 31 -145 3 -19 8 -38 10
-41 2 -3 6 -19 8 -35 3 -16 8 -38 10 -49 2 -11 13 -65 24 -120 11 -55 23 -116
26 -135 3 -19 8 -45 11 -58 3 -12 7 -32 10 -45 3 -12 8 -38 11 -57 4 -26 80
-411 119 -605 2 -11 11 -54 20 -95 9 -41 19 -86 21 -100 39 -204 82 -282 189
-348 64 -39 86 -44 215 -48 268 -9 403 78 457 292 15 61 17 135 18 644 2 572
8 781 25 826 5 13 17 24 27 25 20 1 41 4 118 19 67 12 95 16 260 35 77 9 148
18 157 21 19 5 37 9 102 18 34 6 42 3 70 -27 34 -36 53 -82 158 -377 111 -312
265 -735 278 -765 17 -36 217 -589 234 -645 10 -30 21 -64 26 -75 4 -11 20
-51 35 -90 37 -98 78 -165 132 -220 62 -64 119 -87 218 -91 73 -3 85 -1 151
31 88 42 154 111 184 193 20 52 21 69 15 214 -3 86 -7 165 -9 175 -2 10 -7 72
-10 138 -4 66 -9 143 -11 170 -2 28 -6 91 -9 140 -4 50 -9 119 -11 155 -3 36
-7 92 -10 125 -2 33 -7 96 -10 140 -17 255 -24 350 -30 420 -3 28 -7 88 -10
135 -3 47 -8 114 -10 150 -6 77 -12 161 -21 291 l-7 97 39 12 c71 22 331 172
419 242 6 4 44 33 85 63 110 82 129 96 174 135 68 58 197 190 275 280 40 47
84 97 97 113 40 46 90 129 106 178 9 26 16 81 16 126 1 171 -98 356 -389 733
-439 568 -564 754 -736 1095 -208 413 -444 1062 -509 1405 -3 14 -10 45 -15
70 -6 25 -13 56 -15 70 -3 14 -12 59 -20 100 -18 88 -19 89 -38 205 -9 50 -22
137 -30 195 -8 58 -17 121 -20 140 -7 45 -25 217 -32 295 -2 33 -7 83 -9 110
-13 134 -14 413 -1 470 44 202 175 265 386 184 198 -76 451 -260 770 -559 155
-146 219 -201 291 -251 242 -165 484 -150 652 42 26 29 47 60 47 67 0 8 -15
41 -34 75 -19 34 -45 82 -58 107 -68 122 -137 238 -147 244 -4 3 -13 -19 -20
-48 -23 -105 -110 -198 -185 -198 -65 0 -167 65 -329 210 -117 104 -212 181
-318 259 -134 99 -243 165 -390 239 -70 35 -130 64 -132 64 -3 0 -39 16 -81
35 -177 84 -298 221 -330 378 -49 235 105 449 371 518 66 16 100 19 218 15
192 -6 328 -42 485 -128 112 -62 204 -131 297 -225 32 -32 51 -43 85 -48 92
-12 156 -28 232 -58 124 -47 188 -88 284 -183 28 -28 52 -50 52 -48 0 8 -75
173 -98 213 -14 25 -34 61 -44 80 -59 105 -189 272 -269 346 -89 82 -205 157
-349 229 -127 63 -444 173 -610 211 -8 2 -69 17 -135 33 -111 28 -182 45 -245
58 -30 6 -107 22 -135 29 -11 2 -87 20 -170 39 -298 69 -630 172 -930 289
-300 117 -654 291 -848 419 -32 21 -63 38 -68 38 -5 0 -9 5 -9 10 0 6 -5 10
-11 10 -15 0 -389 265 -409 290 -3 3 -32 27 -65 54 -224 179 -391 362 -532
581 -71 111 -213 345 -213 352 0 2 -8 17 -19 31 -37 53 -213 396 -306 597
-122 265 -278 615 -375 845 -127 297 -241 539 -294 622 -19 30 -57 75 -83 98
-52 46 -164 103 -228 115 -75 15 -181 12 -250 -7z"/>
<path d="M19071 17144 c-74 -16 -178 -62 -229 -103 -21 -16 -110 -100 -198
-188 -147 -143 -348 -334 -406 -385 -13 -11 -59 -52 -103 -93 -44 -40 -96 -85
-115 -101 -19 -16 -37 -31 -40 -34 -14 -15 -169 -146 -285 -240 -44 -36 -82
-67 -85 -70 -31 -33 -400 -306 -535 -396 -568 -381 -1078 -615 -1855 -849 -91
-28 -616 -158 -687 -171 -15 -3 -59 -12 -98 -20 -106 -23 -106 -23 -165 -34
-30 -6 -66 -12 -80 -15 -28 -6 -298 -54 -345 -61 -16 -2 -55 -9 -85 -14 -30
-6 -68 -12 -85 -14 -32 -4 -184 -25 -225 -31 -56 -8 -107 -15 -145 -19 -69 -9
-118 -15 -161 -21 -48 -7 -109 -13 -179 -19 -97 -9 -186 -36 -288 -87 -43 -22
-208 -127 -217 -138 -3 -3 -22 -19 -44 -35 -49 -37 -219 -207 -271 -271 -22
-28 -52 -63 -67 -80 -16 -16 -28 -33 -28 -36 0 -3 -12 -22 -27 -42 -45 -57
-66 -87 -100 -141 -98 -159 -162 -271 -231 -408 -70 -138 -93 -187 -160 -338
-27 -62 -112 -278 -112 -286 0 -3 -7 -20 -15 -37 -54 -116 -180 -540 -229
-772 -56 -265 -58 -258 36 -101 140 232 303 432 412 507 30 20 46 53 150 313
171 429 269 615 391 744 167 178 409 267 583 216 175 -51 266 -255 202 -451
-12 -38 -67 -160 -122 -273 -55 -113 -135 -293 -178 -400 -148 -371 -204 -491
-303 -655 -125 -207 -304 -420 -432 -514 -110 -82 -232 -124 -293 -103 l-29
10 -73 -137 c-40 -75 -91 -170 -113 -211 -22 -41 -45 -81 -50 -88 -21 -27 11
-37 116 -36 85 0 115 5 182 28 337 117 712 446 982 858 34 54 63 101 63 104 0
4 6 15 14 23 29 33 206 403 266 556 4 11 29 64 55 118 49 102 90 147 131 147
22 0 24 -4 25 -47 0 -27 2 -55 4 -64 1 -9 6 -47 9 -85 6 -63 8 -105 21 -324
17 -301 25 -1504 11 -1835 -26 -657 -27 -2120 -1 -3095 6 -236 16 -585 20
-695 2 -60 7 -189 10 -285 16 -461 32 -831 40 -975 13 -210 39 -506 49 -562 2
-10 7 -52 11 -93 4 -41 9 -82 10 -90 2 -8 6 -44 10 -80 4 -36 9 -72 10 -81 2
-9 6 -40 10 -70 3 -30 8 -65 10 -79 2 -14 7 -45 10 -70 3 -25 8 -56 10 -70 3
-14 7 -41 10 -60 9 -54 30 -178 41 -235 11 -60 53 -211 72 -263 27 -69 84
-173 127 -229 150 -197 310 -288 502 -287 73 0 89 4 155 36 80 40 158 109 187
166 22 43 67 223 76 302 3 30 8 66 10 80 9 50 21 178 30 310 3 47 8 110 10
140 2 30 7 116 10 190 3 74 8 182 10 240 3 58 7 184 10 280 6 195 12 343 20
470 3 47 8 112 10 145 5 88 16 233 20 285 2 25 7 83 10 130 5 83 11 158 20
250 2 25 7 79 10 120 4 41 8 95 10 120 5 53 16 184 20 220 1 14 6 63 10 110
10 112 11 124 19 200 4 36 9 88 12 115 2 28 7 66 9 85 3 19 7 60 10 90 6 55
11 105 20 170 2 19 7 55 10 80 3 25 10 77 15 115 6 39 12 88 15 110 2 22 7 57
11 78 3 20 7 47 9 60 1 12 5 38 9 57 3 19 8 51 10 70 13 94 63 177 123 205
101 48 229 -38 267 -179 12 -44 44 -220 61 -336 3 -19 7 -46 10 -60 11 -58 19
-110 30 -195 3 -22 12 -80 20 -130 7 -49 16 -112 20 -140 6 -51 20 -153 30
-215 4 -28 29 -231 70 -565 3 -22 8 -56 10 -75 3 -19 7 -56 10 -83 10 -92 15
-142 20 -177 2 -19 7 -62 10 -95 3 -33 8 -71 10 -85 2 -14 7 -56 10 -95 4 -38
8 -81 10 -95 21 -147 50 -505 60 -735 3 -66 7 -156 10 -200 3 -44 7 -129 10
-190 6 -122 12 -224 20 -330 3 -38 7 -101 10 -140 3 -38 7 -95 10 -125 4 -30
8 -75 11 -100 5 -48 12 -112 20 -170 10 -78 45 -252 56 -278 30 -75 40 -91 80
-131 80 -80 172 -121 281 -125 206 -8 430 144 565 384 73 130 136 329 166 530
3 19 8 46 10 60 9 50 34 239 41 310 1 14 6 57 9 95 12 117 14 137 21 225 3 47
8 105 10 130 2 25 6 95 9 155 4 61 8 139 10 175 5 70 14 305 22 575 7 228 7
1267 0 1480 -3 94 -8 256 -11 360 -4 105 -8 218 -10 251 -2 34 -6 122 -10 195
-3 74 -8 159 -10 189 -2 30 -7 93 -11 140 -11 156 -24 307 -29 360 -2 19 -7
67 -10 105 -3 39 -8 90 -10 115 -4 43 -9 106 -20 255 -3 39 -8 90 -10 115 -7
74 -24 309 -30 430 -3 47 -7 114 -10 150 -3 36 -7 115 -10 175 -3 61 -8 137
-9 170 -2 33 -7 139 -11 235 -3 96 -8 203 -10 237 -23 384 -23 1712 0 2208 2
50 7 160 10 245 12 326 23 419 61 537 67 206 175 350 465 616 105 97 127 116
194 172 33 28 62 53 65 56 10 11 256 206 365 289 274 208 425 339 606 520 169
171 401 445 509 600 8 12 48 67 89 123 84 116 321 471 321 482 0 3 13 26 30
49 37 56 143 266 166 331 20 59 28 234 14 315 -50 282 -413 507 -719 444z"/>
<path d="M3980 16312 c-33 -2 -164 -21 -185 -26 -449 -110 -809 -470 -926
-926 -27 -104 -34 -173 -33 -335 1 -147 10 -208 51 -340 23 -73 36 -102 88
-205 62 -120 225 -325 329 -412 101 -85 343 -198 476 -222 14 -3 50 -10 80
-15 30 -6 65 -13 77 -15 84 -17 236 -22 323 -12 72 9 225 48 280 72 138 62
219 110 320 190 252 199 427 480 476 764 10 57 11 369 2 435 -16 107 -74 270
-132 373 -18 32 -35 64 -38 72 -9 24 -114 166 -155 211 -129 140 -411 313
-558 344 -5 1 -28 7 -50 13 -38 10 -72 15 -175 28 -55 6 -202 10 -250 6z"/>
<path d="M9071 12024 c-204 -43 -403 -154 -567 -318 -176 -177 -269 -366 -309
-631 -7 -47 -8 -239 0 -275 2 -13 7 -42 11 -64 10 -69 55 -198 99 -286 163
-324 465 -556 786 -604 49 -7 149 -11 226 -10 170 3 287 30 438 102 186 90
278 162 409 322 96 119 177 298 205 457 6 32 13 74 17 93 12 70 11 252 -2 323
-50 259 -224 534 -439 692 -22 17 -42 32 -45 35 -10 11 -126 76 -180 102 -120
56 -200 70 -400 73 -124 2 -206 -2 -249 -11z"/>
<path d="M6395 12015 c-141 -35 -245 -93 -351 -199 -70 -70 -134 -162 -159
-227 -4 -12 19 -32 91 -80 54 -35 132 -90 173 -122 l75 -57 24 65 c59 160 210
241 351 190 101 -36 218 -154 346 -349 87 -134 165 -264 165 -275 0 -5 7 -14
15 -21 8 -6 13 -15 12 -18 -1 -4 18 -43 42 -87 81 -148 93 -169 139 -255 24
-47 60 -111 78 -143 19 -32 34 -60 34 -62 0 -3 18 -34 40 -70 22 -36 40 -67
40 -70 0 -2 30 -51 67 -107 162 -251 187 -382 95 -506 -62 -84 -236 -140 -325
-105 -84 33 -196 133 -351 314 -16 19 -61 70 -100 114 -89 101 -83 93 -136
155 -51 60 -132 160 -152 188 -7 10 -31 25 -53 32 -146 47 -305 155 -514 348
-52 48 -98 89 -102 90 -26 10 115 -268 208 -412 72 -110 268 -371 313 -416 3
-3 34 -39 70 -80 35 -41 85 -97 111 -125 26 -27 66 -70 89 -95 157 -170 516
-519 611 -594 284 -223 400 -330 490 -449 62 -82 133 -218 167 -322 24 -71 68
-267 77 -345 4 -30 8 -64 10 -75 2 -11 6 -40 9 -65 3 -25 8 -62 11 -82 15
-117 23 -185 30 -258 3 -36 8 -76 10 -90 2 -14 7 -61 10 -105 4 -44 8 -100 10
-125 2 -25 7 -97 10 -160 4 -63 9 -135 10 -160 13 -191 19 -562 17 -1060 -8
-1547 -5 -2022 12 -2118 2 -9 7 -73 11 -140 3 -68 8 -131 10 -140 1 -10 6 -55
10 -102 9 -96 9 -95 19 -170 15 -106 61 -247 92 -281 8 -8 14 -20 14 -26 0
-13 69 -76 101 -94 32 -17 84 -13 120 8 84 49 141 216 154 450 3 48 7 115 10
148 6 68 13 149 20 250 3 39 8 90 11 115 2 25 7 70 9 100 7 85 16 172 20 200
2 14 7 58 10 99 4 41 8 88 10 105 2 17 7 65 11 106 3 41 8 78 9 81 2 3 7 38
10 77 3 40 8 81 10 92 2 10 6 45 10 77 3 32 8 69 10 83 2 14 6 48 10 75 7 58
9 74 30 220 37 255 49 331 84 510 11 55 22 112 25 128 3 15 7 35 10 45 3 9 7
28 10 42 8 50 46 188 72 265 49 147 97 223 151 239 86 26 207 -299 293 -789 5
-33 12 -71 15 -85 3 -14 8 -45 11 -69 3 -25 7 -47 9 -50 2 -3 6 -31 10 -61 3
-30 9 -68 11 -85 3 -16 7 -42 9 -56 2 -14 9 -61 15 -105 7 -43 14 -90 15 -104
7 -58 16 -128 20 -148 2 -11 7 -56 10 -99 4 -43 8 -80 10 -83 2 -3 6 -34 9
-70 4 -36 9 -81 11 -100 4 -38 11 -105 20 -190 4 -30 8 -66 10 -80 2 -14 6
-61 10 -105 3 -44 8 -93 10 -110 2 -16 7 -66 10 -110 3 -44 8 -93 10 -110 2
-16 7 -64 10 -105 3 -41 8 -102 10 -135 3 -33 7 -96 10 -140 8 -120 15 -197
21 -225 2 -14 6 -34 8 -45 41 -218 163 -323 275 -237 98 74 160 211 185 407 8
61 15 133 21 205 3 36 8 81 10 100 6 51 22 320 30 530 7 156 7 1038 0 1375
-11 594 -3 1225 20 1590 11 173 16 243 20 285 2 25 7 77 11 115 3 39 7 81 9
95 1 14 5 57 9 95 4 39 9 81 11 95 2 14 7 48 10 75 8 74 27 211 40 300 63 408
191 638 500 895 50 41 92 77 95 80 3 3 34 28 70 55 36 28 67 52 70 55 3 3 28
23 55 45 48 37 413 400 560 556 197 210 340 380 459 545 48 65 90 124 94 129
4 6 31 49 60 96 154 253 242 493 270 732 8 61 2 88 -11 54 -3 -8 -46 -68 -95
-134 -102 -135 -247 -291 -370 -399 -61 -53 -102 -101 -157 -184 -41 -61 -86
-126 -100 -143 -14 -18 -29 -37 -33 -42 -21 -30 -170 -212 -187 -230 -11 -11
-39 -43 -62 -71 -24 -28 -53 -62 -65 -75 -13 -14 -54 -61 -93 -104 -130 -146
-160 -177 -220 -225 -106 -84 -153 -98 -251 -75 -264 61 -318 270 -139 545 23
36 67 106 97 156 50 82 69 115 143 249 39 72 146 270 203 375 319 596 514 800
723 755 19 -4 43 -14 54 -21 11 -8 25 -14 31 -14 16 0 187 347 180 366 -7 19
-115 68 -178 81 -58 13 -189 9 -248 -6 -82 -22 -184 -64 -240 -99 -115 -72
-285 -277 -396 -477 -15 -27 -40 -72 -56 -100 -15 -27 -99 -192 -186 -365
-323 -638 -432 -813 -611 -982 -243 -229 -577 -374 -956 -415 -86 -10 -377 -9
-465 0 -466 50 -853 253 -1106 579 -45 58 -186 289 -261 428 -23 41 -117 226
-210 410 -218 432 -275 532 -389 685 -138 187 -286 291 -480 336 -45 10 -195
20 -219 14z"/>
<path d="M17114 2653 c-75 -115 -253 -293 -357 -357 -97 -60 -215 -112 -289
-128 l-58 -12 0 -358 0 -358 -6505 0 -6505 0 0 581 0 581 -27 -7 c-221 -57
-507 -43 -676 33 l-67 31 0 -995 0 -994 7275 0 7275 0 0 1035 c0 569 -2 1035
-4 1035 -2 0 -30 -39 -62 -87z"/>
</g>
</svg>
